<svg xmlns="http://www.w3.org/2000/svg" width="160" height="40" viewBox="0 0 160 40">
    <defs>
        <style>
            .cls-1{fill:#ffe327}.cls-2{fill:#fff}
        </style>
    </defs>
    <g id="splash_logo" transform="translate(-100 -280)">
        <circle id="logo_circle" cx="2.5" cy="2.5" r="2.5" class="cls-1" transform="translate(189.451 291.984)"/>
        <g id="logo" transform="translate(100 280)">
            <path id="패스_1" d="M2322.41 369.15a3.342 3.342 0 0 1-2.741-1.194 7.388 7.388 0 0 1-1.495-5.027c0-5.475 3.189-12.891 5.033-17.121 1.146-2.538 2.342-4.977 3.588-7.167-.847.2-1.694.348-2.591.5a40.507 40.507 0 0 1-5.432.448c-3.039 0-6.129-.6-7.225-3.136a3.439 3.439 0 0 1-.249-1.394 4.9 4.9 0 0 1 .149-1.194c.448-1.145 1.246-2.041 2.192-2.041a1.828 1.828 0 0 1 1 .4 10.139 10.139 0 0 0 3.339 1.194 8.364 8.364 0 0 0 1 .2 1.382 1.382 0 0 0 .448.05 27.39 27.39 0 0 0 2.89.149 33 33 0 0 0 6.478-.647c.947-.249 1.744-.448 2.491-.7l.7-.249a5.005 5.005 0 0 1 2.591-.846l.349.05a27.761 27.761 0 0 1 5.232-1.195 40.633 40.633 0 0 1 5.531-.5c3.04 0 6.079.647 7.176 3.185a3.215 3.215 0 0 1 .249 1.344 3.609 3.609 0 0 1-.2 1.244 2.615 2.615 0 0 1-2.192 1.991 1.727 1.727 0 0 1-1-.348 10.265 10.265 0 0 0-3.289-1.195c-.448-.149-.847-.2-1-.249a1.7 1.7 0 0 1-.5-.05 25.519 25.519 0 0 0-2.791-.149 30.616 30.616 0 0 0-6.577.7l-.349.1-.3.5h-.05a116.915 116.915 0 0 0-2.093 3.832 73.144 73.144 0 0 0-5.63 15.329 4.23 4.23 0 0 0-.2.846l-.249 1.692a27.309 27.309 0 0 0-.448 4.479 7.275 7.275 0 0 0 .1 1.543 3.557 3.557 0 0 1 .049.7 4.166 4.166 0 0 1-3.737 3.932z" class="cls-2" data-name="패스 1" transform="translate(-2311.298 -329.731)"/>
            <path id="패스_2" d="M2389.356 439.617a22.758 22.758 0 0 1 1.794-8.122 20.551 20.551 0 0 1-4.385.548c-.548 0-1.1-.05-1.644-.1l-.05.05c-1.445 2.641-7.375 12.856-12.955 12.856l.6-5.182h.1c.648 0 3.886-.448 9.468-8.421a7.263 7.263 0 0 1-2.043-1.246 5.108 5.108 0 0 1-1.944-3.936 5.64 5.64 0 0 1 5.481-5.531 5.233 5.233 0 0 1 2.392.548 3.73 3.73 0 0 1 2.292 3.637 8.6 8.6 0 0 1-.947 3.638l.548-.1c2.591-.847 5.083-2.591 7.076-2.591h.249a3.446 3.446 0 0 1 2.94 1.5 1.513 1.513 0 0 1 .4 1.046v.2a3.377 3.377 0 0 1-.448 1.595 18.332 18.332 0 0 0-2.193 7.524c0 1.046.249 1.694.847 1.694.748 0 1.993-1 3.887-3.638a.95.95 0 0 1 .5-.2c.15 0 .249.05.349.249v.1c0 1.1-2.043 7.624-7.624 8.969a5.588 5.588 0 0 1-1.2.15c-2.494-.005-3.49-2.297-3.49-5.237zm-4.435-11.71a4.812 4.812 0 0 0 .448-2.093c0-1.346-.6-2.342-1.3-2.342-.4 0-.847.349-1.2 1.146a1.9 1.9 0 0 0-.149.8 2.122 2.122 0 0 0 .4 1.2 4.761 4.761 0 0 0 1.744 1.445zm-12.3 12.553l-.506 4.389-2.26.066-1.124-3.544 3.981-1.7" class="cls-2" data-name="패스 2" transform="translate(-2359.192 -405.497)"/>
            <path id="패스_3" d="M2554.7 464.534c0-5.531 3.737-12.956 11.361-13.9l1.345-.1c3.139 0 4.086 1.595 4.385 2.541a4.557 4.557 0 0 1 3.338-1.595h.15c1.445.05 2.142.847 2.142 1.894a3.127 3.127 0 0 1-.5 1.645c-1.2 2.242-2.591 4.534-2.591 7.076l.05 1.046c.149.947.448 1.595.946 1.595.7 0 1.944-1.146 4.086-4.136a1.229 1.229 0 0 1 .548-.2c.149 0 .249.05.3.249l.05.149c0 1.146-2.093 7.624-7.624 8.919a5.237 5.237 0 0 1-1.2.15c-2.542 0-3.488-2.342-3.488-5.332-3.887 4.285-6.927 5.98-9.169 5.98-2.737-.001-4.129-2.642-4.129-5.981zm15-7.873l.548-1.2.249-.448a2.075 2.075 0 0 0-1.993-1.4c-2.491 0-6.03 3.837-6.03 6.528a2.757 2.757 0 0 0 .3 1.3 1.975 1.975 0 0 0 1.644 1.1c2.139 0 4.63-4.186 5.282-5.88z" class="cls-2" data-name="패스 3" transform="translate(-2514.033 -430.514)"/>
            <path id="패스_4" d="M2704.92 473.323a8.264 8.264 0 0 1-2.441 1.146 5.59 5.59 0 0 1-1.2.15c-2.491 0-3.488-2.292-3.488-5.282a22.961 22.961 0 0 1 2.242-9.119c1-1.993 2.392-3.986 4.934-3.986h.1c1.445.05 2.143.847 2.143 1.893a3.665 3.665 0 0 1-.5 1.645c-1.894 3.339-2.691 5.83-2.691 7.126 0 .648.2 1 .6 1 .947 0 3.089-2.292 5.83-7.674.847-1.694 1.993-3.438 3.937-3.886.2 0 1.894.05 1.894 1.345a2.311 2.311 0 0 1-.2.947 45.891 45.891 0 0 1-5.73 9.368c.149.9.4 1.495.9 1.495.748 0 1.994-1.146 4.136-4.136a.952.952 0 0 1 .5-.2c.15 0 .249.05.349.249v.149c0 1.146-2.093 7.574-7.574 8.919a5.648 5.648 0 0 1-1.246.15 2.8 2.8 0 0 1-2.495-1.299z" class="cls-2" data-name="패스 4" transform="translate(-2633.243 -435.267)"/>
            <path id="패스_5" d="M2797.329 469.519a7.133 7.133 0 0 1-4.136-6.827 12.311 12.311 0 0 1 10.813-11.81l1.246-.05c2.89 0 5.132 1.993 5.232 4.385v.1c0 4.634-5.232 5.83-9.069 5.83l-1.146-.05a8.538 8.538 0 0 0-.4 2.342c0 1.744.8 2.94 2.89 2.94a9.191 9.191 0 0 0 2.342-.4c3.338-.947 4.684-2.342 6.727-5.132a.951.951 0 0 1 .5-.2c.149 0 .249.05.349.249v.15a12.55 12.55 0 0 1-4.684 7.624 10.757 10.757 0 0 1-6.129 1.744 10.991 10.991 0 0 1-4.535-.895zm9.02-11.909a2.614 2.614 0 0 0 1.495-2.043 1.5 1.5 0 0 0-1.645-1.445c-1.4 0-3.338 1.2-5.033 4.684a11.593 11.593 0 0 0 5.182-1.196z" class="cls-2" data-name="패스 5" transform="translate(-2712.704 -430.765)"/>
            <path id="패스_6" d="M2900.437 386.17a8.193 8.193 0 0 1-1.345-4.827c0-5.623 3.588-12.79 5.631-16.871a46.943 46.943 0 0 1 6.926-10.65c.2-.2 2.093-1.991 4.136-1.991l.747.1c1.146.3 1.645.946 1.645 1.841a6.059 6.059 0 0 1-1.246 3.086 5.171 5.171 0 0 1-.4.547v.05c-.7 1-1.445 2.14-2.242 3.484a65.977 65.977 0 0 0-6.328 15.278 19.668 19.668 0 0 0-.548 3.981c0 1.194.249 2.14.947 2.14l.249-.05c.7-.149 1.794-1.244 3.587-3.683.7-4.18 3.04-8.908 4.485-11.745a38.964 38.964 0 0 1 5.78-8.858 5.615 5.615 0 0 1 3.388-1.642l.7.1c.947.249 1.345.746 1.345 1.493a5.3 5.3 0 0 1-1.046 2.588 2.721 2.721 0 0 1-.348.448v.05a32.872 32.872 0 0 0-1.844 2.886 54.4 54.4 0 0 0-5.281 12.69 16.176 16.176 0 0 0-.449 3.384c0 .946.2 1.792.8 1.792l.2-.05c.6-.149 1.595-1.145 3.239-3.434a.788.788 0 0 1 .4-.149.31.31 0 0 1 .3.2v.149a9.887 9.887 0 0 1-2.591 5.126 7.944 7.944 0 0 1-5.332 2.787 3.3 3.3 0 0 1-2.84-1.493 6.1 6.1 0 0 1-1.046-2.837 11.836 11.836 0 0 1-1.794 2.538 9.4 9.4 0 0 1-6.428 3.334 3.922 3.922 0 0 1-3.397-1.792z" class="cls-2" data-name="패스 6" transform="translate(-2800.876 -348.161)"/>
            <path id="패스_7" d="M3041.825 469.519a7.133 7.133 0 0 1-4.136-6.827 12.31 12.31 0 0 1 10.813-11.81l1.246-.05c2.89 0 5.132 1.993 5.232 4.385v.1c0 4.634-5.232 5.83-9.069 5.83l-1.146-.05a8.538 8.538 0 0 0-.4 2.342c0 1.744.8 2.94 2.89 2.94a9.194 9.194 0 0 0 2.342-.4c3.338-.947 4.684-2.342 6.727-5.132a.95.95 0 0 1 .5-.2c.15 0 .249.05.349.249v.15a12.548 12.548 0 0 1-4.684 7.624 10.756 10.756 0 0 1-6.129 1.744 10.99 10.99 0 0 1-4.535-.895zm9.019-11.909a2.615 2.615 0 0 0 1.495-2.043 1.5 1.5 0 0 0-1.645-1.445c-1.4 0-3.339 1.2-5.033 4.684a11.593 11.593 0 0 0 5.183-1.196z" class="cls-2" data-name="패스 7" transform="translate(-2916.257 -430.765)"/>
            <path id="패스_8" d="M3140.132 418.536a8.284 8.284 0 0 1-1.3-4.833c0-4.335 2.043-9.517 3.937-13.554a16.381 16.381 0 0 1-1.794-.349c-.2-.05-2.292-.7-2.691-2.292l-.1-.548c0-.947.9-1.345 2.242-1.345l.647.05a1.382 1.382 0 0 0 .449.05 24.474 24.474 0 0 0 2.84.15 1.7 1.7 0 0 0 .5.05l1.495-2.79a5.4 5.4 0 0 1 4.385-2.591l.6.05a2.119 2.119 0 0 1 1.943 2.392 7.659 7.659 0 0 1-.548 2.591l-.2.3.7.05.6-.05a23.871 23.871 0 0 0 2.841-.15 1.237 1.237 0 0 0 .448-.05l.648-.05c1.4 0 2.292.448 2.292 1.4a2.185 2.185 0 0 1-.1.5c-.448 1.595-2.491 2.242-2.74 2.292a30.078 30.078 0 0 1-6.777.648 61.943 61.943 0 0 0-2.791 8.072 22.847 22.847 0 0 0-.5 4.086c0 1.146.2 2.093.9 2.093l.249-.05c.748-.149 1.943-1.4 3.886-4.086a.99.99 0 0 1 .548-.2c.15 0 .249.05.349.249v.1a12.3 12.3 0 0 1-3.139 6.278 9.632 9.632 0 0 1-6.427 3.289 3.873 3.873 0 0 1-3.392-1.752z" class="cls-2" data-name="패스 8" transform="translate(-3000.063 -380.479)"/>
        </g>
    </g>
</svg>
