<svg xmlns="http://www.w3.org/2000/svg" width="80" height="48" viewBox="0 0 80 48">
    <defs>
        <style>
            .cls-1{fill:none}.cls-2{fill:#dbdde4}
        </style>
    </defs>
    <g id="ic_backspace" transform="translate(.325)">
        <path id="사각형_309" d="M0 0h80v48H0z" class="cls-1" data-name="사각형 309" transform="translate(-.325)"/>
        <path id="ic_backspace_24px" d="M22 3H7a1.882 1.882 0 0 0-1.59.88L0 12l5.41 8.11A1.891 1.891 0 0 0 7 21h15a2.006 2.006 0 0 0 2-2V5a2.006 2.006 0 0 0-2-2zm-3 12.59L17.59 17 14 13.41 10.41 17 9 15.59 12.59 12 9 8.41 10.41 7 14 10.59 17.59 7 19 8.41 15.41 12z" class="cls-2" transform="translate(27.951 16)"/>
    </g>
</svg>
