<svg xmlns="http://www.w3.org/2000/svg" id="prefix__ic_budget" width="48" height="48" viewBox="0 0 48 48">
    <defs>
        <style>
            .prefix__cls-1{fill:none}
        </style>
    </defs>
    <path id="prefix__사각형_339" d="M0 0H48V48H0z" class="prefix__cls-1" data-name="사각형 339"/>
    <g id="prefix__ic_budeget_24px" transform="translate(12 12)">
        <path id="prefix__사각형_353" d="M0 0H24V24H0z" class="prefix__cls-1" data-name="사각형 353"/>
        <g id="prefix__그룹_450" data-name="그룹 450" transform="translate(40 -4030)">
            <g id="prefix__사각형_352" data-name="사각형 352" transform="translate(-38 4034)" style="stroke:#dbdde4;stroke-width:2px;fill:none">
                <rect width="20" height="16" rx="2" style="stroke:none"/>
                <rect width="18" height="14" x="1" y="1" class="prefix__cls-1" rx="1"/>
            </g>
            <path id="prefix__패스_2128" d="M-2.351-7.905H-.3a5.41 5.41 0 011.472.151 1.459 1.459 0 01.808.612 2.753 2.753 0 01.308 1.486 1.6 1.6 0 01-.217.966 1.515 1.515 0 01-.857.42 1.521 1.521 0 01.967.535 2.063 2.063 0 01.254 1.146v.733a2.911 2.911 0 01-.184 1.187.987.987 0 01-.583.528A5.985 5.985 0 01.027 0h-2.378zM-.3-6.553v1.758h.205q.3 0 .386-.149A2.437 2.437 0 00.378-5.8a1.377 1.377 0 00-.068-.52.328.328 0 00-.178-.188A1.584 1.584 0 00-.3-6.553zm0 2.988v2.212a.877.877 0 00.554-.137.959.959 0 00.12-.6v-.737a1.041 1.041 0 00-.107-.615.963.963 0 00-.567-.122z" data-name="패스 2128" transform="translate(-28 4046)" style="fill:#dbdde4"/>
        </g>
    </g>
</svg>
