<svg xmlns="http://www.w3.org/2000/svg" id="ic_cash" width="48" height="48" viewBox="0 0 48 48">
    <defs>
        <style>
            .cls-1{fill:none}.cls-2{fill:#427dff}
        </style>
    </defs>
    <path id="사각형_330" d="M0 0h48v48H0z" class="cls-1" data-name="사각형 330"/>
    <g id="local_atm-24px" transform="translate(20 12)">
        <path id="패스_2059" d="M0 0h24v24H0z" class="cls-1" data-name="패스 2059"/>
        <path id="패스_2060" d="M20 4H4a1.985 1.985 0 0 0-1.99 2L2 18a1.993 1.993 0 0 0 2 2h16a1.993 1.993 0 0 0 2-2V6a1.993 1.993 0 0 0-2-2zm0 13a1 1 0 0 1-1 1H5a1 1 0 0 1-1-1V7a1 1 0 0 1 1-1h14a1 1 0 0 1 1 1zm-6-7a1 1 0 0 0 0-2h-1v-.01a1 1 0 0 0-2 0V8h-1a1 1 0 0 0-1 1v3a1 1 0 0 0 1 1h3v1h-3a1 1 0 0 0 0 2h1a1 1 0 0 0 2 0h1a1 1 0 0 0 1-1v-3a1 1 0 0 0-1-1h-3v-1z" class="cls-2" data-name="패스 2060"/>
    </g>
</svg>
