<svg xmlns="http://www.w3.org/2000/svg" id="ic_down" width="14.001" height="8" viewBox="0 0 14.001 8">
    <defs>
        <style>
            .cls-1{fill:#dbdde4}
        </style>
    </defs>
    <g id="ic_down-2" data-name="ic_down">
        <path id="Path" d="M.306.306a1.046 1.046 0 0 0 0 1.478l5.9 5.91a1.041 1.041 0 0 0 .834.3 1.041 1.041 0 0 0 .744-.306l5.907-5.907A1.044 1.044 0 1 0 12.218.306L7 5.527 1.782.306a1.043 1.043 0 0 0-1.476 0z" class="cls-1"/>
    </g>
    <g id="ic_down-3" data-name="ic_down">
        <path id="Path-2" d="M.306.306a1.046 1.046 0 0 0 0 1.478l5.9 5.91a1.041 1.041 0 0 0 .834.3 1.041 1.041 0 0 0 .744-.306l5.907-5.907A1.044 1.044 0 1 0 12.218.306L7 5.527 1.782.306a1.043 1.043 0 0 0-1.476 0z" class="cls-1" data-name="Path"/>
    </g>
</svg>
