<svg xmlns="http://www.w3.org/2000/svg" id="ic_history_24px" width="24" height="24" viewBox="0 0 24 24">
    <defs>
        <style>
            .cls-1{fill:none}.cls-2{fill:#dbdde4}
        </style>
    </defs>
    <g id="그룹_380" data-name="그룹 380">
        <path id="사각형_333" d="M0 0h24v24H0z" class="cls-1" data-name="사각형 333"/>
        <path id="사각형_334" d="M0 0h24v24H0z" class="cls-1" data-name="사각형 334"/>
    </g>
    <g id="그룹_381" data-name="그룹 381">
        <path id="패스_2088" d="M21.5 11a.5.5 0 0 0 .5-.5V9.26a.507.507 0 0 0-.21-.41L12.57 2.4a1.008 1.008 0 0 0-1.15 0L2.21 8.85a.507.507 0 0 0-.21.41v1.24a.5.5 0 0 0 .5.5H4v9H3a1 1 0 0 0 0 2h18a1 1 0 0 0 0-2h-1v-9zM16 17a1 1 0 0 1-2 0v-3l-1.17 1.75a1 1 0 0 1-1.66 0L10 14v3a1 1 0 0 1-2 0v-4.7A1.3 1.3 0 0 1 9.3 11a1.307 1.307 0 0 1 1.08.58L12 14l1.61-2.42A1.325 1.325 0 0 1 14.7 11a1.3 1.3 0 0 1 1.3 1.3z" class="cls-2" data-name="패스 2088"/>
    </g>
</svg>
