<svg xmlns="http://www.w3.org/2000/svg" id="ic_leisure_24px" width="24" height="24" viewBox="0 0 24 24">
    <defs>
        <style>
            .cls-1{fill:none}.cls-2{fill:#dbdde4}
        </style>
    </defs>
    <path id="패스_2091" d="M0 0h24v24H0z" class="cls-1" data-name="패스 2091"/>
    <path id="패스_2092" d="M6.11 5.56A4.538 4.538 0 0 1 9 7l1 1-3.25 3.25a5.472 5.472 0 0 1 .77.39 1.8 1.8 0 0 0 1.15.36 1.8 1.8 0 0 0 1.15-.36 3.891 3.891 0 0 1 2.19-.64 3.825 3.825 0 0 1 2.18.64 1.877 1.877 0 0 0 1.15.36 1.816 1.816 0 0 0 1.15-.36c.12-.07.26-.15.41-.23L10.48 5A6.093 6.093 0 0 0 6.3 3.05 1.211 1.211 0 0 0 5 4.26v.09a1.24 1.24 0 0 0 1.11 1.21zm15.24 13.35a2.244 2.244 0 0 1-.5-.27 4.033 4.033 0 0 0-4.36 0 1.816 1.816 0 0 1-1.15.36 1.877 1.877 0 0 1-1.15-.36 3.825 3.825 0 0 0-2.18-.64 3.891 3.891 0 0 0-2.19.64 1.8 1.8 0 0 1-1.15.36 1.8 1.8 0 0 1-1.15-.36A3.825 3.825 0 0 0 5.34 18a3.891 3.891 0 0 0-2.19.64 3.536 3.536 0 0 1-.5.27.907.907 0 0 0-.65.85v.12a.971.971 0 0 0 1.3.91 4.912 4.912 0 0 0 .89-.44A1.874 1.874 0 0 1 5.34 20a1.816 1.816 0 0 1 1.15.36 3.825 3.825 0 0 0 2.18.64 3.891 3.891 0 0 0 2.19-.64 1.8 1.8 0 0 1 1.15-.36 1.877 1.877 0 0 1 1.15.36 4.033 4.033 0 0 0 4.36 0 1.8 1.8 0 0 1 1.15-.36 1.877 1.877 0 0 1 1.15.36 4.485 4.485 0 0 0 .88.44.974.974 0 0 0 1.3-.91v-.12a.909.909 0 0 0-.65-.86zM3.11 16.35a4.5 4.5 0 0 0 1.09-.49 1.816 1.816 0 0 1 1.15-.36 1.877 1.877 0 0 1 1.15.36 3.825 3.825 0 0 0 2.18.64 3.825 3.825 0 0 0 2.18-.64 1.8 1.8 0 0 1 1.15-.36 1.877 1.877 0 0 1 1.15.36 4.033 4.033 0 0 0 4.36 0 1.8 1.8 0 0 1 1.15-.36 1.877 1.877 0 0 1 1.15.36 4.775 4.775 0 0 0 .85.43.978.978 0 0 0 1.31-.91v-.12a.932.932 0 0 0-.64-.86 3.078 3.078 0 0 1-.51-.26 4.033 4.033 0 0 0-4.36 0 1.816 1.816 0 0 1-1.15.36 1.877 1.877 0 0 1-1.15-.36 3.825 3.825 0 0 0-2.18-.64 3.825 3.825 0 0 0-2.18.64 1.8 1.8 0 0 1-1.15.36 1.877 1.877 0 0 1-1.15-.36 3.825 3.825 0 0 0-2.18-.64 3.825 3.825 0 0 0-2.18.64 3.536 3.536 0 0 1-.5.27.907.907 0 0 0-.65.85v.23a.882.882 0 0 0 1.11.86z" class="cls-2" data-name="패스 2092"/>
    <circle id="타원_14" cx="2.5" cy="2.5" r="2.5" class="cls-2" data-name="타원 14" transform="translate(14 3)"/>
</svg>
