<svg xmlns="http://www.w3.org/2000/svg" id="ic_rest_24px" width="24" height="24" viewBox="0 0 24 24">
    <defs>
        <style>
            .cls-1{fill:none}.cls-2{fill:#dbdde4}
        </style>
    </defs>
    <path id="패스_2083" d="M0 0h24v24H0z" class="cls-1" data-name="패스 2083"/>
    <path id="패스_2084" d="M13.13 14.56l1.43-1.43 5.73 5.73a1.011 1.011 0 0 1-1.43 1.43l-5.73-5.73zm4.29-5.73l1.27-1.27a1.982 1.982 0 0 0-.31-3.08 10.1 10.1 0 0 0-12.4 1.47 11.168 11.168 0 0 1 11.44 2.88zM5.95 5.98a10.116 10.116 0 0 0-1.48 12.4 1.976 1.976 0 0 0 3.08.31l1.27-1.27A11.183 11.183 0 0 1 5.95 5.98zm.02-.02l-.01.01c-.38 3.01 1.17 6.88 4.3 10.02l5.73-5.73c-3.13-3.13-7.01-4.68-10.02-4.3z" class="cls-2" data-name="패스 2084"/>
</svg>
