<svg xmlns="http://www.w3.org/2000/svg" id="ic_transport" width="50" height="56" viewBox="0 0 50 56">
    <defs>
        <style>
            .cls-1{fill:none}.cls-2{fill:#dbdde4}.cls-3{fill:#c8cbd3;font-size:10px;font-family:Roboto-Regular,Roboto;letter-spacing:.03em}
        </style>
    </defs>
    <path id="사각형_328" d="M0 0h50v56H0z" class="cls-1" data-name="사각형 328"/>
    <g id="그룹_363" data-name="그룹 363" transform="translate(-789 -253)">
        <g id="ic_transport_32px" transform="translate(798 257)">
            <path id="패스_2043" d="M0 0h32v32H0z" class="cls-1" data-name="패스 2043"/>
            <path id="패스_2044" d="M4 21.895a4.15 4.15 0 0 0 1.5 3.155v1.819A2.19 2.19 0 0 0 7.75 29 2.19 2.19 0 0 0 10 26.868v-.711h12v.711a2.253 2.253 0 0 0 4.5 0v-1.819a4.15 4.15 0 0 0 1.5-3.154V7.684C28 2.711 22.63 2 16 2S4 2.711 4 7.684zm5.25 1.421a2.135 2.135 0 1 1 0-4.263 2.135 2.135 0 1 1 0 4.263zm13.5 0A2.135 2.135 0 1 1 25 21.184a2.19 2.19 0 0 1-2.25 2.132zM25 14.789H7V7.684h18z" class="cls-2" data-name="패스 2044"/>
        </g>
        <text id="Transport" class="cls-3" transform="translate(814 303)">
            <tspan x="-22.755" y="0">Transport</tspan>
        </text>
    </g>
</svg>
