<svg xmlns="http://www.w3.org/2000/svg" id="ic_view_list" width="48" height="48" viewBox="0 0 48 48">
    <defs>
        <style>
            .cls-1,.cls-2{fill:none}.cls-2{opacity:.87}.cls-3{fill:#dbdde4}
        </style>
    </defs>
    <path id="사각형_355" d="M0 0h48v48H0z" class="cls-1" data-name="사각형 355"/>
    <g id="ic_view_list_24px" transform="translate(12 12)">
        <path id="패스_2123" d="M0 0h24v24H0z" class="cls-2" data-name="패스 2123"/>
        <path id="패스_2124" d="M4 14h2a1 1 0 0 0 1-1v-2a1 1 0 0 0-1-1H4a1 1 0 0 0-1 1v2a1 1 0 0 0 1 1zm0 5h2a1 1 0 0 0 1-1v-2a1 1 0 0 0-1-1H4a1 1 0 0 0-1 1v2a1 1 0 0 0 1 1zM4 9h2a1 1 0 0 0 1-1V6a1 1 0 0 0-1-1H4a1 1 0 0 0-1 1v2a1 1 0 0 0 1 1zm5 5h10a1 1 0 0 0 1-1v-2a1 1 0 0 0-1-1H9a1 1 0 0 0-1 1v2a1 1 0 0 0 1 1zm0 5h10a1 1 0 0 0 1-1v-2a1 1 0 0 0-1-1H9a1 1 0 0 0-1 1v2a1 1 0 0 0 1 1zM8 6v2a1 1 0 0 0 1 1h10a1 1 0 0 0 1-1V6a1 1 0 0 0-1-1H9a1 1 0 0 0-1 1z" class="cls-3" data-name="패스 2124"/>
    </g>
</svg>
